<svg width="97" height="97" viewBox="0 0 97 97" fill="none" xmlns="http://www.w3.org/2000/svg">
<path fill-rule="evenodd" clip-rule="evenodd" d="M51.0867 19.7867L49.84 23.1733L48.5933 19.7867L45.1933 18.5449L48.5933 17.3031L49.84 13.9164L50.6333 16.1742L64.8501 2.82499C59.7417 0.996175 54.2372 0 48.5 0C21.7142 0 0 21.7142 0 48.5C0 75.2858 21.7142 97 48.5 97C75.2858 97 97 75.2858 97 48.5C97 47.684 96.9799 46.8727 96.94 46.0666L85.7667 57.9431L88.0333 58.8462L85.0867 59.8622L84.0667 62.7973L83.0467 59.8622L80.1 58.8462L83.0467 57.7173L84.0667 54.8951L84.7467 56.7013L96.9001 45.3618C96.2406 35.036 92.35 25.589 86.2284 18.0209L85.7667 17.8676L86.021 17.7662C83.4726 14.6587 80.5458 11.8735 77.3109 9.48098L46.78 40.784L50.6333 42.2516L46.2133 43.832L44.6267 48.2347L43.04 43.832L38.62 42.2516L43.04 40.5582L44.6267 36.1556L45.8733 39.4293L77.0355 9.27877C73.4275 6.64923 69.4428 4.50544 65.1776 2.94357L51.6533 17.416L54.4867 18.5449L51.0867 19.7867ZM56.5267 39.0907L58 35.2524L58.9067 37.9618L76.5867 21.48L59.9267 39.2036L63.2133 40.4453L59.36 41.9129L58 45.6382L56.5267 41.9129L52.7867 40.4453L56.5267 39.0907ZM38.8467 7.14311L39.5267 5.224L41.4533 4.54667L39.5267 3.86933L38.8467 1.95022L38.1667 3.86933L36.24 4.54667L38.1667 5.224L38.8467 7.14311ZM34.6533 29.2693L33.6333 32.0916L32.5 29.2693L29.6667 28.2533L32.5 27.1244L33.6333 24.3022L34.6533 27.1244L37.4867 28.2533L34.6533 29.2693ZM85.2 36.9458L84.18 39.8809L81.3467 40.8969L84.18 42.0258L85.2 44.848L86.3333 42.0258L89.1667 40.8969L86.3333 39.8809L85.2 36.9458ZM66.0467 62.3458L65.2533 64.3778L63.2133 65.168L65.2533 65.9582L66.0467 68.1031L66.84 65.9582L68.9933 65.168L66.84 64.3778L66.0467 62.3458ZM56.0733 79.392L56.7533 77.36L57.5467 79.392L59.7 80.1822L57.5467 80.9724L56.7533 83.1173L56.0733 80.9724L53.92 80.1822L56.0733 79.392ZM16.18 36.8329L16.9733 34.8009L19.1267 34.0107L16.9733 33.2204L16.18 31.0756L15.3867 33.2204L13.3467 34.0107L15.3867 34.8009L16.18 36.8329ZM41.1133 56.2498L40.32 58.5076L37.94 59.4107L40.32 60.3138L41.1133 62.5716L42.02 60.3138L44.2867 59.4107L42.02 58.5076L41.1133 56.2498ZM33.0667 76.5698L32.0467 79.2791L29.2133 80.2951L32.0467 81.3111L33.0667 84.1333L34.0867 81.3111L36.8067 80.2951L34.9933 79.6178L75.5667 38.0747L33.7467 78.4889L33.0667 76.5698ZM20.1467 52.4116L37.7133 35.9298L21.0533 53.6533L24.34 54.8951L20.4867 56.3627L19.1267 60.088L17.6533 56.3627L13.9133 54.8951L17.6533 53.5404L19.1267 49.7022L20.1467 52.4116Z" fill="#AD2EE8"/>
</svg>
